<?xml version="1.0" encoding="utf-8"?>
<!-- Generator: Adobe Illustrator 23.0.3, SVG Export Plug-In . SVG Version: 6.00 Build 0)  -->
<svg version="1.1" id="TEXT" xmlns="http://www.w3.org/2000/svg" xmlns:xlink="http://www.w3.org/1999/xlink" x="0px" y="0px"
	 viewBox="0 0 424 305.1" style="enable-background:new 0 0 424 305.1;" xml:space="preserve">
<style type="text/css">
	.st0{fill:#1E1E34;}
	.st1{fill:#FFFFFF;}
</style>
<g>
	<g>
		<g>
			<path class="st0" d="M243.56,111.13c-0.88,2.4-2.41,4.37-4.54,5.86c-2.15,1.51-4.45,2.24-7.04,2.24c-3.39,0-6.23-1.18-8.67-3.62
				c-2.43-2.43-3.62-5.27-3.62-8.66c0-3.42,1.18-6.26,3.62-8.7c2.41-2.41,5.25-3.59,8.67-3.59c2.64,0,4.95,0.74,7.08,2.26
				c2.19,1.56,3.66,3.5,4.51,5.93l8.07-2.83c-1.45-4.14-4.01-7.53-7.62-10.08c-3.63-2.54-7.68-3.83-12.04-3.83
				c-5.72,0-10.67,2.05-14.73,6.11c-0.84,0.84-1.53,1.73-2.2,2.64c-0.66-0.91-1.36-1.81-2.2-2.64c-4.06-4.05-9.01-6.11-14.73-6.11
				c-4.36,0-8.38,1.28-11.94,3.79c-3.59,2.5-6.17,5.84-7.64,9.92l8.01,2.93c0.88-2.39,2.41-4.36,4.54-5.86
				c2.15-1.5,4.45-2.24,7.04-2.24c3.39,0,6.23,1.18,8.66,3.62c2.44,2.43,3.62,5.27,3.62,8.66c0,3.42-1.18,6.26-3.62,8.7
				c-2.41,2.41-5.25,3.59-8.66,3.59c-2.64,0-4.95-0.74-7.08-2.26c-2.19-1.56-3.66-3.5-4.51-5.93l-8.07,2.83
				c1.45,4.14,4.01,7.53,7.62,10.08c3.64,2.54,7.69,3.83,12.05,3.83c5.72,0,10.67-2.05,14.73-6.11c0.84-0.84,1.53-1.73,2.2-2.64
				c0.66,0.91,1.36,1.81,2.2,2.64c4.06,4.05,9.01,6.11,14.73,6.11c4.36,0,8.38-1.28,11.94-3.79c3.6-2.5,6.17-5.84,7.65-9.93
				L243.56,111.13z"/>
			<path class="st1" d="M257.37,107.03c0-5.59,1.98-10.35,5.93-14.26c3.92-3.96,8.67-5.93,14.26-5.93c5.59,0,10.35,1.98,14.26,5.93
				c3.96,3.92,5.93,8.67,5.93,14.26v1.64h-27.27v-3.27h23.89c-0.42-4.3-2.21-7.91-5.44-10.84s-7-4.41-11.37-4.41
				c-4.68,0-8.63,1.64-11.94,4.94c-3.31,3.31-4.94,7.27-4.94,11.94c0,4.68,1.64,8.63,4.94,11.94c3.31,3.31,7.27,4.94,11.94,4.94
				c3.54,0,6.77-1.03,9.7-3.08c2.93-2.05,4.98-4.76,6.2-8.06l3.12,1.1c-1.45,3.99-3.92,7.23-7.42,9.66
				c-3.5,2.47-7.38,3.69-11.6,3.69c-5.59,0-10.35-1.98-14.26-5.93C259.35,117.38,257.37,112.63,257.37,107.03z"/>
			<path class="st1" d="M305.38,114.49h3.31c0,2.59,1.18,4.79,3.58,6.66c2.4,1.86,5.33,2.78,8.71,2.78s6.28-0.91,8.67-2.78
				c2.4-1.86,3.61-4.07,3.61-6.66c0-2.62-1.22-4.83-3.61-6.69c-2.4-1.86-5.29-2.78-8.67-2.78c-3,0-5.59-0.87-7.72-2.66
				c-2.17-1.79-3.23-3.92-3.23-6.39c0-2.51,1.07-4.64,3.23-6.39c2.13-1.79,4.72-2.66,7.72-2.66s5.59,0.87,7.72,2.66
				c2.17,1.75,3.23,3.88,3.23,6.39h-3.31c0-1.6-0.76-2.97-2.24-4.07c-1.48-1.14-3.31-1.71-5.4-1.71s-3.92,0.57-5.4,1.71
				c-1.48,1.1-2.24,2.47-2.24,4.07c0,1.56,0.76,2.93,2.24,4.07c1.48,1.1,3.31,1.67,5.4,1.67c4.3,0,7.95,1.25,11.03,3.76
				c3.04,2.47,4.56,5.48,4.56,9.01c0,3.5-1.52,6.5-4.56,9.01c-3.08,2.47-6.73,3.73-11.03,3.73c-4.3,0-7.99-1.26-11.03-3.73
				C306.9,120.99,305.38,117.99,305.38,114.49z"/>
			<path class="st1" d="M342.16,114.49h3.31c0,2.59,1.18,4.79,3.58,6.66c2.4,1.86,5.33,2.78,8.71,2.78c3.38,0,6.28-0.91,8.67-2.78
				c2.4-1.86,3.61-4.07,3.61-6.66c0-2.62-1.22-4.83-3.61-6.69c-2.4-1.86-5.29-2.78-8.67-2.78c-3,0-5.59-0.87-7.72-2.66
				c-2.17-1.79-3.23-3.92-3.23-6.39c0-2.51,1.07-4.64,3.23-6.39c2.13-1.79,4.72-2.66,7.72-2.66s5.59,0.87,7.72,2.66
				c2.17,1.75,3.23,3.88,3.23,6.39h-3.31c0-1.6-0.76-2.97-2.24-4.07c-1.48-1.14-3.31-1.71-5.4-1.71s-3.92,0.57-5.4,1.71
				c-1.48,1.1-2.24,2.47-2.24,4.07c0,1.56,0.76,2.93,2.24,4.07c1.48,1.1,3.31,1.67,5.4,1.67c4.3,0,7.95,1.25,11.03,3.76
				c3.04,2.47,4.56,5.48,4.56,9.01c0,3.5-1.52,6.5-4.56,9.01c-3.08,2.47-6.73,3.73-11.03,3.73c-4.3,0-7.99-1.26-11.03-3.73
				C343.68,120.99,342.16,117.99,342.16,114.49z"/>
			<g>
				<path class="st1" d="M132.86,106.64c0-5.54,1.99-10.32,5.92-14.29c3.98-3.94,8.75-5.92,14.33-5.92c5.54,0,10.32,1.99,14.29,5.92
					c3.94,3.98,5.92,8.75,5.92,14.29v20.26h-3.33v-20.26c0-4.66-1.64-8.64-4.93-11.96c-3.33-3.29-7.3-4.93-11.96-4.93
					c-4.7,0-8.68,1.64-12,4.93c-3.29,3.33-4.93,7.3-4.93,11.96c0,4.7,1.64,8.68,4.93,12c3.33,3.29,7.3,4.93,12,4.93
					c1.87,0,3.71-0.31,5.5-0.92l1.07,3.13c-2.1,0.73-4.32,1.11-6.57,1.11c-5.58,0-10.36-1.99-14.33-5.92
					C134.85,117,132.86,112.22,132.86,106.64z"/>
			</g>
		</g>
		<g>
			<path class="st0" d="M156.19,256.14c-32.82,0-59.52-26.7-59.52-59.52s26.7-59.52,59.52-59.52s59.52,26.7,59.52,59.52
				S189.01,256.14,156.19,256.14z M156.19,149.34c-26.07,0-47.28,21.21-47.28,47.28s21.21,47.28,47.28,47.28
				s47.28-21.21,47.28-47.28S182.25,149.34,156.19,149.34z"/>
		</g>
	</g>
	<g>
		<g>
			<polygon class="st1" points="362.17,76.13 359.65,76.13 359.65,51.49 252.91,51.49 252.91,76.13 250.39,76.13 250.39,48.96 
				362.17,48.96 			"/>
		</g>
		<g>
			<polygon class="st1" points="362.17,177.36 250.39,177.36 250.39,141.21 252.91,141.21 252.91,174.83 359.65,174.83 
				359.65,141.21 362.17,141.21 			"/>
		</g>
		<g>
			<path class="st1" d="M253.13,194.44c0.95-0.16,2.19-0.29,3.77-0.29c1.94,0,3.36,0.45,4.27,1.27c0.83,0.72,1.33,1.83,1.33,3.18
				c0,1.38-0.41,2.46-1.17,3.25c-1.04,1.11-2.73,1.67-4.65,1.67c-0.59,0-1.13-0.02-1.58-0.14v6.1h-1.96V194.44z M255.1,201.78
				c0.43,0.11,0.97,0.16,1.63,0.16c2.37,0,3.82-1.15,3.82-3.25c0-2.01-1.42-2.98-3.59-2.98c-0.86,0-1.51,0.07-1.85,0.16V201.78z"/>
			<path class="st1" d="M274.4,203.92c0,4.04-2.8,5.8-5.44,5.8c-2.96,0-5.24-2.17-5.24-5.62c0-3.66,2.39-5.8,5.42-5.8
				C272.28,198.3,274.4,200.58,274.4,203.92z M265.73,204.04c0,2.39,1.38,4.2,3.32,4.2c1.9,0,3.32-1.78,3.32-4.24
				c0-1.85-0.92-4.2-3.27-4.2S265.73,201.96,265.73,204.04z"/>
			<path class="st1" d="M277.54,198.55l1.45,5.56c0.32,1.22,0.61,2.35,0.81,3.48h0.07c0.25-1.11,0.61-2.28,0.97-3.45l1.78-5.58h1.67
				l1.69,5.47c0.41,1.31,0.72,2.46,0.97,3.57h0.07c0.18-1.11,0.47-2.26,0.84-3.54l1.56-5.49h1.97l-3.52,10.93h-1.81l-1.67-5.22
				c-0.38-1.22-0.7-2.3-0.97-3.59h-0.05c-0.27,1.31-0.61,2.44-0.99,3.61l-1.76,5.19h-1.81l-3.3-10.93H277.54z"/>
			<path class="st1" d="M294.25,204.37c0.05,2.69,1.76,3.79,3.75,3.79c1.42,0,2.28-0.25,3.03-0.56l0.34,1.42
				c-0.7,0.32-1.9,0.68-3.64,0.68c-3.36,0-5.37-2.21-5.37-5.51s1.94-5.89,5.13-5.89c3.57,0,4.52,3.14,4.52,5.15
				c0,0.41-0.05,0.72-0.07,0.93H294.25z M300.07,202.95c0.02-1.26-0.52-3.23-2.76-3.23c-2.01,0-2.89,1.85-3.05,3.23H300.07z"/>
			<path class="st1" d="M304.45,201.96c0-1.29-0.02-2.39-0.09-3.41h1.74l0.07,2.15h0.09c0.5-1.47,1.69-2.39,3.03-2.39
				c0.23,0,0.38,0.02,0.56,0.07v1.87c-0.2-0.04-0.41-0.07-0.68-0.07c-1.4,0-2.39,1.06-2.66,2.55c-0.04,0.27-0.09,0.59-0.09,0.93
				v5.83h-1.96V201.96z"/>
			<path class="st1" d="M326.51,203.92c0,4.04-2.8,5.8-5.44,5.8c-2.96,0-5.24-2.17-5.24-5.62c0-3.66,2.39-5.8,5.42-5.8
				C324.39,198.3,326.51,200.58,326.51,203.92z M317.84,204.04c0,2.39,1.38,4.2,3.32,4.2c1.9,0,3.32-1.78,3.32-4.24
				c0-1.85-0.92-4.2-3.27-4.2S317.84,201.96,317.84,204.04z"/>
			<path class="st1" d="M329.22,209.48v-9.42h-1.54v-1.51h1.54v-0.52c0-1.53,0.34-2.94,1.26-3.82c0.74-0.72,1.74-1.02,2.66-1.02
				c0.7,0,1.31,0.16,1.69,0.32l-0.27,1.53c-0.29-0.13-0.7-0.25-1.26-0.25c-1.69,0-2.12,1.49-2.12,3.16v0.59h2.64v1.51h-2.64v9.42
				H329.22z"/>
			<path class="st1" d="M253.13,219.36h1.96v7.34h0.07c0.41-0.59,0.81-1.13,1.2-1.63l4.65-5.71h2.44l-5.51,6.46l5.94,8.76h-2.33
				l-5.01-7.47l-1.45,1.67v5.8h-1.96V219.36z"/>
			<path class="st1" d="M265.53,226.61c0-1.13-0.02-2.05-0.09-2.96h1.76l0.11,1.81h0.04c0.54-1.04,1.81-2.05,3.61-2.05
				c1.51,0,3.86,0.9,3.86,4.65v6.53h-1.99v-6.3c0-1.76-0.65-3.23-2.53-3.23c-1.31,0-2.33,0.93-2.66,2.03
				c-0.09,0.25-0.14,0.59-0.14,0.93v6.57h-1.99V226.61z"/>
			<path class="st1" d="M287.95,229.02c0,4.04-2.8,5.8-5.44,5.8c-2.96,0-5.24-2.17-5.24-5.62c0-3.66,2.39-5.8,5.42-5.8
				C285.83,223.4,287.95,225.68,287.95,229.02z M279.28,229.14c0,2.39,1.38,4.2,3.32,4.2c1.9,0,3.32-1.78,3.32-4.24
				c0-1.85-0.92-4.2-3.27-4.2S279.28,227.06,279.28,229.14z"/>
			<path class="st1" d="M291.08,223.65l1.45,5.56c0.32,1.22,0.61,2.35,0.81,3.48h0.07c0.25-1.11,0.61-2.28,0.97-3.45l1.78-5.58h1.67
				l1.69,5.47c0.41,1.31,0.72,2.46,0.97,3.57h0.07c0.18-1.11,0.47-2.26,0.84-3.54l1.56-5.49h1.97l-3.52,10.93h-1.81l-1.67-5.22
				c-0.38-1.22-0.7-2.3-0.97-3.59h-0.05c-0.27,1.31-0.61,2.44-0.99,3.61l-1.76,5.19h-1.81l-3.3-10.93H291.08z"/>
			<path class="st1" d="M306.91,218.55h1.99v16.03h-1.99V218.55z"/>
			<path class="st1" d="M313.34,229.47c0.05,2.69,1.76,3.79,3.75,3.79c1.42,0,2.28-0.25,3.03-0.56l0.34,1.42
				c-0.7,0.32-1.9,0.68-3.64,0.68c-3.36,0-5.37-2.21-5.37-5.51s1.94-5.89,5.13-5.89c3.57,0,4.52,3.14,4.52,5.15
				c0,0.41-0.05,0.72-0.07,0.93H313.34z M319.17,228.05c0.02-1.26-0.52-3.23-2.76-3.23c-2.01,0-2.89,1.85-3.05,3.23H319.17z"/>
			<path class="st1" d="M332.99,218.55v13.21c0,0.97,0.02,2.08,0.09,2.82h-1.78l-0.09-1.9h-0.05c-0.61,1.22-1.94,2.15-3.73,2.15
				c-2.64,0-4.67-2.24-4.67-5.56c-0.02-3.64,2.23-5.87,4.9-5.87c1.67,0,2.8,0.79,3.3,1.67H331v-6.52H332.99z M331,228.1
				c0-0.25-0.02-0.59-0.09-0.84c-0.29-1.27-1.38-2.3-2.87-2.3c-2.05,0-3.27,1.81-3.27,4.22c0,2.21,1.08,4.04,3.23,4.04
				c1.33,0,2.55-0.88,2.91-2.37c0.07-0.27,0.09-0.54,0.09-0.86V228.1z"/>
			<path class="st1" d="M345.7,223.65c-0.04,0.79-0.09,1.67-0.09,3V233c0,2.51-0.5,4.04-1.56,4.99c-1.06,0.99-2.6,1.31-3.97,1.31
				c-1.31,0-2.76-0.32-3.64-0.9l0.5-1.51c0.72,0.45,1.85,0.86,3.21,0.86c2.03,0,3.52-1.06,3.52-3.82v-1.22h-0.04
				c-0.61,1.02-1.78,1.83-3.48,1.83c-2.71,0-4.65-2.3-4.65-5.33c0-3.7,2.42-5.8,4.92-5.8c1.9,0,2.94,0.99,3.41,1.9h0.04l0.09-1.65
				H345.7z M343.64,227.96c0-0.34-0.02-0.63-0.11-0.9c-0.36-1.15-1.33-2.1-2.78-2.1c-1.9,0-3.25,1.6-3.25,4.13
				c0,2.14,1.08,3.93,3.23,3.93c1.22,0,2.33-0.77,2.76-2.03c0.11-0.34,0.16-0.72,0.16-1.06V227.96z"/>
			<path class="st1" d="M350.01,229.47c0.05,2.69,1.76,3.79,3.75,3.79c1.42,0,2.28-0.25,3.03-0.56l0.34,1.42
				c-0.7,0.32-1.9,0.68-3.64,0.68c-3.36,0-5.37-2.21-5.37-5.51s1.94-5.89,5.13-5.89c3.57,0,4.52,3.14,4.52,5.15
				c0,0.41-0.05,0.72-0.07,0.93H350.01z M355.83,228.05c0.02-1.26-0.52-3.23-2.76-3.23c-2.01,0-2.89,1.85-3.05,3.23H355.83z"/>
		</g>
	</g>
	<g>
		<path class="st0" d="M73.58,154.41h-0.35L53.6,165l-2.95-11.62l24.65-13.21h13.03v112.89H73.58V154.41z"/>
	</g>
</g>
</svg>
